<svg xmlns="http://www.w3.org/2000/svg" viewBox="0 0 274.12 57.43">
<path fill="#ffffff" d="M37.81 10.12H23.49l-1.54 6.09h14.32l.99 1.23-1.94 7.67-1.54 1.23H9.73l-.08.24c2.79 0 4.9.9 6.31 2.69 1.41 1.79 1.71 4.3.89 7.51l-4.71 18.71-1.46 1.23H.95L0 55.49l7.28-29.15H2.57l-.87-1.23 1.94-7.67 1.46-1.23h4.71l3.8-14.98L15.07 0h25.27l.95 1.23-1.94 7.71-1.54 1.19Zm9.86 47.31c-5.62 0-9.84-1.29-12.68-3.88-2.83-2.58-4.25-6.12-4.25-10.6 0-5.01 1.18-9.61 3.54-13.8 2.36-4.19 5.65-7.53 9.87-10.01s8.9-3.72 14.04-3.72c5.51 0 9.7 1.31 12.56 3.92 2.86 2.61 4.29 6.16 4.29 10.64 0 5.01-1.17 9.6-3.52 13.78s-5.62 7.5-9.83 9.97c-4.21 2.47-8.88 3.7-14.02 3.7Zm7.83-31.48c-3.53 0-6.45 1.42-8.76 4.25-2.31 2.83-3.46 6.14-3.46 9.91 0 2.19.6 3.87 1.8 5.04 1.2 1.17 2.95 1.76 5.24 1.76 3.48 0 6.38-1.41 8.7-4.23 2.32-2.82 3.48-6.1 3.48-9.85 0-2.16-.6-3.85-1.8-5.06-1.2-1.21-2.93-1.82-5.2-1.82Zm95.53 21.55-8.19 9.22h-10.52l-1.23-1.23v-5.66l3.4-13.45c.42-1.66.63-3.26.63-4.79 0-4.11-2.07-6.17-6.21-6.17-2.45 0-4.68.68-6.68 2.04-2 1.36-3.3 3.22-3.88 5.6l-5.66 22.43-1.46 1.23h-9.69l-.99-1.23 4.79-19.1c.42-1.66.63-3.26.63-4.79 0-4.11-2.08-6.17-6.25-6.17-2.85 0-5.3.94-7.36 2.81s-3.55 4.59-4.47 8.15l-4.75 19.1-1.46 1.23h-9.73l-.99-1.23 9.57-38.05 1.46-1.23h9.73l.95 1.23-3.32 13.09h.24c1.13-4.46 3.1-8.09 5.89-10.9 2.79-2.81 6.31-4.21 10.56-4.21 8.44 0 12.66 4.07 12.66 12.22 0 .61-.05 1.57-.16 2.89h.24c1.13-4.46 3.09-8.09 5.87-10.9 2.78-2.81 6.29-4.21 10.54-4.21s7.55 1.07 9.59 3.22c2.04 2.15 3.07 5.17 3.07 9.08 0 2.51-.41 5.39-1.23 8.66l-3.4 13.45v2.57h.83l6.49-5.26.47.36Z"/>
<path fill="#ffffff" d="M165.08 57.43c-5.62 0-9.84-1.29-12.68-3.88-2.83-2.58-4.25-6.12-4.25-10.6 0-5.01 1.18-9.61 3.54-13.8 2.36-4.19 5.65-7.53 9.87-10.01s8.9-3.72 14.04-3.72c5.51 0 9.7 1.31 12.56 3.92 2.86 2.61 4.29 6.16 4.29 10.64 0 5.01-1.17 9.6-3.52 13.78s-5.62 7.5-9.83 9.97c-4.21 2.47-8.88 3.7-14.02 3.7Zm7.83-31.48c-3.53 0-6.45 1.42-8.76 4.25-2.31 2.83-3.46 6.14-3.46 9.91 0 2.19.6 3.87 1.8 5.04 1.2 1.17 2.95 1.76 5.24 1.76 3.48 0 6.38-1.41 8.7-4.23 2.32-2.82 3.48-6.1 3.48-9.85 0-2.16-.6-3.85-1.8-5.06-1.2-1.21-2.93-1.82-5.2-1.82Zm36.32 21.19.47.36-8.19 9.22h-10.52l-1.23-1.23v-5.66l12.23-48.6L203.45 0h9.73l.99 1.23-12.26 48.61v2.57h.83l6.49-5.26Z"/>
<path fill="#ffffff" d="M225.02 57.43c-5.62 0-9.84-1.29-12.68-3.88-2.83-2.58-4.25-6.12-4.25-10.6 0-5.01 1.18-9.61 3.54-13.8 2.36-4.19 5.65-7.53 9.87-10.01s8.9-3.72 14.04-3.72c5.51 0 9.7 1.31 12.56 3.92 2.86 2.61 4.29 6.16 4.29 10.64 0 5.01-1.17 9.6-3.52 13.78s-5.62 7.5-9.83 9.97c-4.21 2.47-8.88 3.7-14.02 3.7Zm7.83-31.48c-3.53 0-6.45 1.42-8.76 4.25-2.31 2.83-3.46 6.14-3.46 9.91 0 2.19.6 3.87 1.8 5.04 1.2 1.17 2.95 1.76 5.24 1.76 3.48 0 6.38-1.41 8.7-4.23 2.32-2.82 3.48-6.1 3.48-9.85 0-2.16-.6-3.85-1.8-5.06-1.2-1.21-2.93-1.82-5.2-1.82Zm36.32 21.19.47.36-8.19 9.22h-10.52l-1.23-1.23v-5.66l12.23-48.6L263.39 0h9.73l.99 1.23-12.26 48.61v2.57h.83l6.49-5.26Z"/>
</svg>