<svg xmlns="http://www.w3.org/2000/svg" viewBox="0 0 7059 2791">
    <path fill="#000000" d="M612.48 2753.92c-44.136-26.9-71.671-76.72-71.671-129.57 0-21.57-14.905-122.95-33.145-225.28-23.109-129.77-35.192-242.55-39.937-372.75-12.413-341.44-6.292-329.34-144.468-284.94-175.78 56.48-272.04 37.93-311.214-59.99-37.776-94.43 16.157-189.16 121.859-214.02 32.929-7.75 79.078-21.64 102.563-30.87 23.484-9.22 69.566-20.08 102.403-24.14 59.712-7.37 59.712-7.37 60.418-155.2.808-169.6 23.234-303.707 64.684-386.779 15.611-31.29 48.949-97.852 74.083-147.915 188.24-374.944 527.355-406.928 605.735-57.141 39.28 175.245-215.658 308.358-278.238 145.298-29.356-76.506-154.071 277.517-154.071 437.327 0 108.36-6.406 104 113.781 77.56 189.958-41.78 284.458 2.61 284.458 133.65 0 119.1-59.17 156.4-294.243 185.54-60.964 7.56-60.964 7.56-53.716 100.19 3.982 50.94 12.072 174.55 17.966 274.68 5.894 100.13 23.996 258.85 40.233 352.72 59.132 341.9-23.462 493.84-207.48 381.63Zm661.86-72.79c-98.19-44.15-215.56-239.85-249.92-416.7-81.053-417.34 330.2-1015.42 602.7-876.49 34.73 17.7 57.14 21.1 103.28 15.68 100.93-11.86 197.52 45.87 272.41 162.82 36.61 57.15 24.56 473.27-17.07 589.67-82.59 230.92-174.31 363.96-324.19 470.23-98.75 70.01-292.39 97.42-387.21 54.79Zm241.46-344.76c154.71-114.46 289.84-595.52 167.3-595.61-35.11-.02-69.12-8.24-92.07-22.22-116.27-70.9-305.24 326.81-247.56 521.04 43.05 145 79.51 165.47 172.33 96.78v.01Zm713.48 230.16c-163.15-71.02-135.66-883.09 35.22-1040.6 110.49-101.84 248.32-100.73 356.33 2.87 39.94 38.29 50.86 43.85 58.83 29.96 185.07-322.63 330.47-235.18 614.76 369.79 26.46 56.32 85.9 180.15 132.1 275.17 110.98 228.31 108.83 301.82-10.54 360.34-67.65 33.16-212.69-26.31-212.69-87.21 0-6.75-33.28-80.36-73.96-163.56-40.68-83.21-73.96-154.06-73.96-157.43 0-22.18-150.54-314.28-157.69-305.96-4.89 5.71-23.32 46.22-40.98 90.02-113.34 281.33-284.83 290.26-364.55 18.98-47.63-162.11-52.95-140.06-50.09 208.22 2.46 300.95 1.81 311.35-21.81 344.53-44.83 62.95-121.68 85.03-190.97 54.88Zm1614.07-11.75c-433.84-201.99-365.04-914.63 114.54-1186.44 107.03-60.65 261.01 56.99 383.99 293.33 58 111.51 42.97 416.53-27.38 555.37-21.07 41.59-49.43 108.89-63 149.56-57.1 170.98-252.03 260.86-408.15 188.18Zm133.14-350.31c7.96-26.59 28.79-76.73 46.27-111.4 76.26-151.14 35.49-450.48-48.35-355.11-99.05 112.66-130.07 345.1-61.64 461.86 38.21 65.22 45.43 65.75 63.72 4.65Zm2450.82 320.86c-75.2-48.19-89.29-115.01-89.78-426.11-.25-161.05-6.11-305.75-14.27-352.72-7.61-43.81-18.94-256.3-25.19-472.2-6.26-215.9-16.46-445.904-22.71-511.146C6225.26 239.805 6269.1.137 6414.99 0c131.37-.136 156.12 58.142 156.57 368.595.18 132.054 7.71 314.331 16.72 405.072 9.01 90.741 16.54 275.063 16.74 409.613.34 244.28 11.6 424.36 35.92 574.44 7.09 43.71 14.56 199.87 16.63 347.03 2.07 147.15 4.37 283.65 5.1 303.37 4.15 110.71-136.31 180.66-235.36 117.21Zm-1596.95-29.41c-71.39-50.64-80.41-79.76-91.74-296.16-9.22-176.34-32.58-351.3-56.12-420.6-6.11-17.96-26.24-135.97-44.73-262.24-20.2-137.95-42.98-251.48-57.07-284.45-41.05-96.09-103.2-333.45-121.38-463.684-9.67-69.282-25.46-159.248-35.08-199.925-64.89-274.497-15.5-456.604 124.69-459.71 108.47-2.401 156.52 60.702 163.78 215.08 2.64 56.322 11.98 143.365 20.74 193.428 8.76 50.064 24.68 142.227 35.37 204.807 19.08 111.71 67.04 292.004 122.56 460.814 15.43 46.93 42.02 179.75 59.08 295.15 17.06 115.41 38.07 235.73 46.68 267.38 23.87 87.74 49.21 306.66 49.31 426.05.05 58.72 6.01 126.52 13.25 150.65 36.58 122.11-127.14 245.91-229.34 173.41Zm642.86-48.13c-268.18-122.16-389.18-855.35-186.31-1128.97 37.23-50.22 84.96-101.49 106.08-113.94 21.1-12.45 41.22-30.07 44.71-39.12 19.54-50.94 122.59-75.97 192.5-46.77 80.93 33.82 213.75 236.1 270.07 411.32 14.07 43.81 32.15 95.61 40.16 115.14 178.04 433.59-126.93 957.31-467.21 802.33v.01Zm180.71-384.53c40.85-98.01-29.76-488.2-101.31-559.74-73.14-73.14-80.24 278.59-9.78 484.82 65.58 191.97 63.03 190.24 111.09 74.92Zm1247.48 374.43c-92.31-46.37-115.92-138.1-50.35-195.67 85.75-75.3 187.69-14.15 206.18 123.69 11.45 85.33-61.88 119.19-155.83 71.98Zm122.74-50.24c6.55-56.52-49.32-146.01-91.14-146.01-40.93 0-88.72 38.05-88.72 70.66 0 86.1 170.37 157.48 179.86 75.35Zm-118.78-3.6c-25.66-66.84 30.75-149.16 65.4-95.44 36.42 56.5 36.64 121.27.34 101.84-15.22-8.15-25.43-8.46-30.08-.91-10.31 16.67-28.22 13.92-35.66-5.49Zm52.7-51.38c0-6.26-2.25-11.38-5.02-11.38-2.76 0-8.19 5.12-12.05 11.38-3.87 6.26-1.6 11.38 5.02 11.38 6.62 0 12.05-5.12 12.05-11.38Z" />
</svg>